<svg xmlns="http://www.w3.org/2000/svg" xmlns:xlink="http://www.w3.org/1999/xlink" version="1.1" x="0px" y="0px" viewBox="0 0 512 512" enable-background="new 0 0 512 512" xml:space="preserve"><g><path d="M200,200h-72c-39.701,0-72-32.299-72-72s32.299-72,72-72s72,32.299,72,72V200z M128,72c-30.879,0-56,25.122-56,56   s25.121,56,56,56h56v-56C184,97.122,158.879,72,128,72z"/></g><g><path d="M384,200h-72v-72c0-39.701,32.299-72,72-72s72,32.299,72,72S423.701,200,384,200z M328,184h56c30.879,0,56-25.122,56-56   s-25.121-56-56-56s-56,25.122-56,56V184z"/></g><g><path d="M384,456c-39.701,0-72-32.299-72-72v-72h72c39.701,0,72,32.299,72,72S423.701,456,384,456z M328,328v56   c0,30.878,25.121,56,56,56s56-25.122,56-56s-25.121-56-56-56H328z"/></g><g><path d="M128,456c-39.701,0-72-32.299-72-72s32.299-72,72-72h72v72C200,423.701,167.701,456,128,456z M128,328   c-30.879,0-56,25.122-56,56s25.121,56,56,56s56-25.122,56-56v-56H128z"/></g><g><path d="M328,328H184V184h144V328z M200,312h112V200H200V312z"/></g></svg>